<?xml version="1.0" encoding="utf-8"?>
<svg version="1.0" id="svg5" xmlns="http://www.w3.org/2000/svg" x="0px" y="0px" viewBox="0 0 2309.76 1595.97" style="enable-background:new 0 0 2309.76 1595.97;" xmlns:bx="https://boxy-svg.com" width="36px" height="36px"><defs><bx:export><bx:file format="svg" path="ps2.svg"/><bx:file format="html" excluded="true"/></bx:export></defs><style type="text/css">
	.st0{fill-rule:evenodd;clip-rule:evenodd;fill:#2c5ce0b0;}
	.st1{fill-rule:evenodd;clip-rule:evenodd;fill:#2c5ce0b0;}
	.st2{fill-rule:evenodd;clip-rule:evenodd;fill:#2c5ce0b0;}
</style><g id="layer1" transform="translate(-326.44138,39.376876)"><path d="M 1088.07 745.09 L 1088.07 613.74 L 500.53 613.74 C 500.254 613.74 500.03 613.516 500.03 613.24 L 500.03 589.37 C 500.03 589.094 500.254 588.87 500.53 588.87 L 1110.27 588.87 C 1110.546 588.87 1110.77 589.094 1110.77 589.37 L 1110.77 769.46 C 1110.77 769.736 1110.546 769.96 1110.27 769.96 L 524.89 769.96 L 524.89 927.85 C 524.89 928.126 524.666 928.35 524.39 928.35 L 500.53 928.35 C 500.254 928.35 500.03 928.126 500.03 927.85 L 500.03 745.59 C 500.03 745.314 500.254 745.09 500.53 745.09 Z M 1088.57 746.09 L 501.03 746.09 L 501.03 927.35 L 523.89 927.35 L 523.89 769.46 C 523.89 769.184 524.114 768.96 524.39 768.96 L 1109.77 768.96 L 1109.77 589.87 L 501.03 589.87 L 501.03 612.74 L 1088.57 612.74 C 1088.846 612.74 1089.07 612.964 1089.07 613.24 L 1089.07 745.59 C 1089.07 745.866 1088.846 746.09 1088.57 746.09 Z" style="fill: none; stroke: #2c5ce0b0; stroke-width: 35px;" transform="matrix(1, 0, 0, 1, -0.00003051758176297881, 0)"/><path d="M 1849.7 588.87 L 2462.61 588.87 L 2462.61 769.96 L 1876.75 769.96 L 1876.75 903.51 L 2462.61 903.51 L 2462.61 928.35 L 1849.7 928.35 L 1849.7 745.09 L 2437.75 745.09 L 2437.75 613.74 L 1849.7 613.74 Z M 2438.75 612.74 L 2438.75 746.09 L 1850.7 746.09 L 1850.7 927.35 L 2461.61 927.35 L 2461.61 904.51 L 1875.75 904.51 L 1875.75 768.96 L 2461.61 768.96 L 2461.61 589.87 L 1850.7 589.87 L 1850.7 612.74 Z" style="fill: none; stroke: #2c5ce0b0; stroke-width: 35px;"/><path d="M 1451.99 613.74 L 1451.99 927.85 C 1451.99 928.126 1451.766 928.35 1451.49 928.35 L 1110.27 928.35 C 1109.994 928.35 1109.77 928.126 1109.77 927.85 L 1109.77 904.01 C 1109.77 903.734 1109.994 903.51 1110.27 903.51 L 1424.75 903.51 L 1424.75 589.37 C 1424.75 589.094 1424.974 588.87 1425.25 588.87 L 1764.27 588.87 C 1764.546 588.87 1764.77 589.094 1764.77 589.37 L 1764.77 613.24 C 1764.77 613.516 1764.546 613.74 1764.27 613.74 Z M 1451.49 612.74 L 1763.77 612.74 L 1763.77 589.87 L 1425.75 589.87 L 1425.75 904.01 C 1425.75 904.286 1425.526 904.51 1425.25 904.51 L 1110.77 904.51 L 1110.77 927.35 L 1450.99 927.35 L 1450.99 613.24 C 1450.99 612.964 1451.214 612.74 1451.49 612.74 Z" style="fill: none; stroke: #2c5ce0b0; stroke-width: 35px;"/></g></svg>